<svg width="20" height="20" viewBox="0 0 20 20" fill="none" xmlns="http://www.w3.org/2000/svg">
<path d="M9.99902 9.5686C10.2371 9.5686 10.4307 9.76218 10.4307 10.0002V16.7502C10.4307 16.9883 10.2371 17.1819 9.99902 17.1819C9.76096 17.1819 9.56738 16.9883 9.56738 16.7502V10.0002C9.56738 9.76218 9.76096 9.5686 9.99902 9.5686Z" fill="#22242B" stroke="#22242B" stroke-width="0.1125"/>
<path d="M13.376 16.3191C13.614 16.3191 13.8076 16.5127 13.8076 16.7507C13.8076 16.9888 13.614 17.1824 13.376 17.1824H7.00098C6.76291 17.1824 6.56934 16.9888 6.56934 16.7507C6.56934 16.5127 6.76291 16.3191 7.00098 16.3191H13.376Z" fill="#22242B" stroke="#22242B" stroke-width="0.1125"/>
<path d="M15.624 5.06909C15.8621 5.06909 16.0557 5.26267 16.0557 5.50073C16.0557 5.7388 15.8621 5.93237 15.624 5.93237H4.37402C4.13596 5.93237 3.94238 5.7388 3.94238 5.50073C3.94238 5.26267 4.13596 5.06909 4.37402 5.06909H15.624Z" fill="#22242B" stroke="#22242B" stroke-width="0.1125"/>
<path d="M15.998 2.81934C16.2361 2.81934 16.4297 3.01291 16.4297 3.25098V4.00098C16.4297 7.54729 13.5444 10.4326 9.99805 10.4326C6.45173 10.4326 3.56641 7.54729 3.56641 4.00098V3.25098C3.56641 3.01291 3.75998 2.81934 3.99805 2.81934H15.998ZM4.42969 4.00098C4.42969 7.07191 6.92711 9.56934 9.99805 9.56934C13.069 9.56934 15.5664 7.07191 15.5664 4.00098V3.68262H4.42969V4.00098Z" fill="#22242B" stroke="#22242B" stroke-width="0.1125"/>
</svg>
