<svg width="18" height="14" viewBox="0 0 18 14" fill="none" xmlns="http://www.w3.org/2000/svg">
<path fill-rule="evenodd" clip-rule="evenodd" d="M14.0003 7.00004C15.8412 7.00004 17.3337 5.50762 17.3337 3.66671C17.3337 1.82576 15.8412 0.333374 14.0003 0.333374C12.4472 0.333374 11.1421 1.39568 10.772 2.83337H1.50033C1.04009 2.83337 0.666992 3.20647 0.666992 3.66671C0.666992 4.12695 1.04009 4.50004 1.50033 4.50004H10.772C11.1421 5.93771 12.4472 7.00004 14.0003 7.00004ZM12.3337 3.66671C12.3337 4.58718 13.0798 5.33337 14.0003 5.33337C14.9208 5.33337 15.667 4.58718 15.667 3.66671C15.667 2.74623 14.9208 2.00004 14.0003 2.00004C13.0798 2.00004 12.3337 2.74623 12.3337 3.66671ZM0.666992 10.3334C0.666992 8.49246 2.15938 7.00004 4.00033 7.00004C5.55353 7.00004 6.85861 8.06237 7.22864 9.50004H16.5003C16.9606 9.50004 17.3337 9.87312 17.3337 10.3334C17.3337 10.7936 16.9606 11.1667 16.5003 11.1667H7.22864C6.85861 12.6044 5.55353 13.6667 4.00033 13.6667C2.15938 13.6667 0.666992 12.1743 0.666992 10.3334ZM5.66699 10.3334C5.66699 9.41287 4.9208 8.66671 4.00033 8.66671C3.07985 8.66671 2.33366 9.41287 2.33366 10.3334C2.33366 11.2539 3.07985 12 4.00033 12C4.9208 12 5.66699 11.2539 5.66699 10.3334Z" fill="#5E1053"/>
</svg>
