<svg width="44" height="44" viewBox="0 0 44 44" fill="none" xmlns="http://www.w3.org/2000/svg">
<path d="M22.12 22.78C22.05 22.77 21.96 22.77 21.88 22.78C20.12 22.72 18.72 21.28 18.72 19.51C18.72 17.7 20.18 16.23 22 16.23C23.81 16.23 25.28 17.7 25.28 19.51C25.27 21.28 23.88 22.72 22.12 22.78Z" stroke="#44464B" stroke-width="1.5" stroke-linecap="round" stroke-linejoin="round"/>
<path d="M28.74 29.38C26.96 31.01 24.6 32 22 32C19.4 32 17.04 31.01 15.26 29.38C15.36 28.44 15.96 27.52 17.03 26.8C19.77 24.98 24.25 24.98 26.97 26.8C28.04 27.52 28.64 28.44 28.74 29.38Z" stroke="#44464B" stroke-width="1.5" stroke-linecap="round" stroke-linejoin="round"/>
<path d="M22 32C27.5228 32 32 27.5228 32 22C32 16.4772 27.5228 12 22 12C16.4772 12 12 16.4772 12 22C12 27.5228 16.4772 32 22 32Z" stroke="#44464B" stroke-width="1.5" stroke-linecap="round" stroke-linejoin="round"/>
</svg>
