<svg width="44" height="44" viewBox="0 0 44 44" fill="none" xmlns="http://www.w3.org/2000/svg">
<path d="M15.7 13.6C17.4535 12.2875 19.6375 11.5 22 11.5C27.796 11.5 32.5 16.204 32.5 22C32.5 27.796 27.796 32.5 22 32.5C16.204 32.5 11.5 27.796 11.5 22C11.5 20.0995 12.004 18.3145 12.8965 16.771L22 22" stroke="#5E1053" stroke-width="1.575" stroke-miterlimit="10" stroke-linecap="round" stroke-linejoin="round"/>
<path d="M16.5715 18.808C16.015 19.7425 15.7 20.8345 15.7 22C15.7 25.4755 18.5245 28.3 22 28.3C25.4755 28.3 28.3 25.4755 28.3 22C28.3 18.5245 25.4755 15.7 22 15.7C21.0445 15.7 20.131 15.91 19.3225 16.2985" stroke="#5E1053" stroke-width="1.575" stroke-miterlimit="10" stroke-linecap="round" stroke-linejoin="round"/>
</svg>
