<svg width="22" height="22" viewBox="0 0 22 22" fill="none" xmlns="http://www.w3.org/2000/svg">
<path d="M8.08231 5.38291C6.9436 5.15422 5.76125 5.30738 4.71839 5.81866C3.67553 6.32994 2.83035 7.17082 2.31375 8.21105C1.79715 9.25129 1.63795 10.4328 1.86082 11.5727C2.08368 12.7126 2.67617 13.7471 3.54653 14.5162C4.41688 15.2853 5.51653 15.7459 6.67516 15.8267C7.83379 15.9076 8.98675 15.6042 9.95548 14.9634C10.9242 14.3227 11.6546 13.3804 12.0337 12.2826C12.4127 11.1847 12.4191 9.99249 12.052 8.89059M13.0367 15.737C14.1766 15.9668 15.3605 15.8139 16.4046 15.302C17.4487 14.7901 18.2947 13.9478 18.8111 12.9059C19.3275 11.864 19.4855 10.6808 19.2606 9.53987C19.0356 8.39897 18.4404 7.36424 17.5672 6.59629C16.6939 5.82835 15.5916 5.37015 14.4314 5.29283C13.2711 5.21551 12.1177 5.52339 11.1503 6.16868C10.1829 6.81397 9.45562 7.76057 9.08131 8.86154C8.70699 9.9625 8.70659 11.1562 9.08019 12.2575" stroke="#22242B" stroke-width="1.2" stroke-linecap="round" stroke-linejoin="round"/>
</svg>
