<svg width="20" height="20" viewBox="0 0 20 20" fill="none" xmlns="http://www.w3.org/2000/svg">
<g clip-path="url(#clip0_661_429)">
<path d="M6.33301 11.5168L7.52476 14.1133" stroke="#22242B" stroke-width="0.6" stroke-miterlimit="10" stroke-linecap="round" stroke-linejoin="round"/>
<path d="M7.26074 11.0908L8.45174 13.6873" stroke="#22242B" stroke-width="0.6" stroke-miterlimit="10" stroke-linecap="round" stroke-linejoin="round"/>
<path d="M16.0303 7.06738L17.222 9.66388" stroke="#22242B" stroke-width="0.6" stroke-miterlimit="10" stroke-linecap="round" stroke-linejoin="round"/>
<path d="M17.8398 7.19788L18.3055 8.21263C18.5058 8.64913 18.3145 9.16588 17.8773 9.36613L3.31979 16.0456C2.88329 16.2459 2.36654 16.0546 2.16629 15.6174L1.70054 14.6026C1.50029 14.1661 1.69154 13.6494 2.12879 13.4491L16.6863 6.76963C17.1228 6.56938 17.6395 6.76063 17.8398 7.19788Z" stroke="#22242B" stroke-width="0.6" stroke-miterlimit="10" stroke-linecap="round" stroke-linejoin="round"/>
<path d="M17.0838 -1.12598C16.5963 -0.507977 16.4088 0.283273 16.4215 1.05952C16.4335 1.83652 16.6818 2.57902 16.8685 3.32527C16.9615 3.69802 17.0343 4.04302 17.008 4.42627C16.9803 4.81927 16.8933 5.20927 16.7538 5.57752" stroke="#22242B" stroke-width="0.6" stroke-miterlimit="10" stroke-linecap="round" stroke-linejoin="round"/>
<path d="M15.4618 2.70825C15.23 3.00225 15.1408 3.37875 15.1468 3.74775C15.1528 4.1175 15.2705 4.47075 15.3598 4.8255C15.404 5.0025 15.4385 5.16675 15.4258 5.349C15.4123 5.53575 15.371 5.72175 15.305 5.8965" stroke="#22242B" stroke-width="0.6" stroke-miterlimit="10" stroke-linecap="round" stroke-linejoin="round"/>
</g>
<defs>
<clipPath id="clip0_661_429">
<rect width="20" height="20" fill="white"/>
</clipPath>
</defs>
</svg>
