<svg width="20" height="20" viewBox="0 0 20 20" fill="none" xmlns="http://www.w3.org/2000/svg">
<path d="M11.4424 2.92471L12.9091 5.85804C13.1091 6.26637 13.6424 6.65804 14.0924 6.73304L16.7507 7.17471C18.4507 7.45804 18.8507 8.69137 17.6257 9.90804L15.5591 11.9747C15.2091 12.3247 15.0174 12.9997 15.1257 13.483L15.7174 16.0414C16.1841 18.0664 15.1091 18.8497 13.3174 17.7914L10.8257 16.3164C10.3757 16.0497 9.63407 16.0497 9.17574 16.3164L6.68407 17.7914C4.90074 18.8497 3.81741 18.058 4.28407 16.0414L4.87574 13.483C4.98407 12.9997 4.79241 12.3247 4.44241 11.9747L2.37574 9.90804C1.15907 8.69137 1.55074 7.45804 3.25074 7.17471L5.90907 6.73304C6.35074 6.65804 6.88407 6.26637 7.08407 5.85804L8.55074 2.92471C9.35074 1.33304 10.6507 1.33304 11.4424 2.92471Z" stroke="#22242B" stroke-width="1.2" stroke-linecap="round" stroke-linejoin="round"/>
</svg>
