<svg width="20" height="20" viewBox="0 0 20 20" fill="none" xmlns="http://www.w3.org/2000/svg">
<mask id="mask0_661_308" style="mask-type:luminance" maskUnits="userSpaceOnUse" x="2" y="2" width="16" height="16">
<path d="M17.4844 17.4844V2.51562H2.51562V17.4844H17.4844Z" fill="white" stroke="white" stroke-width="0.0316406"/>
</mask>
<g mask="url(#mask0_661_308)">
<path d="M12.4056 15.8284C12.4056 15.8284 11.5229 15.6585 10.8501 14.6929C10.1192 13.6437 10.0137 12.3948 10.0137 12.3948C10.0137 12.3948 11.1473 12.9247 11.8781 13.9738C12.5509 14.9395 12.4056 15.8284 12.4056 15.8284Z" stroke="#22242B" stroke-width="0.474609" stroke-miterlimit="10" stroke-linecap="round" stroke-linejoin="round"/>
<path d="M10.0148 2.7189C10.0148 2.7189 11.1516 4.21075 11.1516 6.93231C11.1516 9.88904 10.0148 12.3955 10.0148 12.3955C10.0148 12.3955 8.878 9.88904 8.878 6.93231C8.878 4.21075 10.0148 2.7189 10.0148 2.7189Z" stroke="#22242B" stroke-width="0.474609" stroke-miterlimit="10" stroke-linecap="round" stroke-linejoin="round"/>
<path d="M15.9545 6.4466C15.9545 6.4466 15.738 8.06402 14.0682 9.73714C12.2542 11.5549 10.0175 12.3955 10.0175 12.3955C10.0175 12.3955 10.8564 10.1543 12.6705 8.3366C14.3403 6.66349 15.9545 6.4466 15.9545 6.4466Z" stroke="#22242B" stroke-width="0.474609" stroke-miterlimit="10" stroke-linecap="round" stroke-linejoin="round"/>
<path d="M15.4897 13.116C16.6576 12.8725 17.2829 12.3946 17.2829 12.3946C17.2829 12.3946 16.1581 11.5341 14.1062 11.5341C11.877 11.5341 9.9873 12.3946 9.9873 12.3946C9.9873 12.3946 11.877 13.2551 14.1062 13.2551C14.1853 13.2551 14.2624 13.2534 14.3386 13.251C14.3386 13.2507 14.3386 13.2505 14.3386 13.2502" stroke="#22242B" stroke-width="0.474609" stroke-miterlimit="10" stroke-linecap="round" stroke-linejoin="round"/>
<path d="M2.72168 12.3946C2.72168 12.3946 3.84647 11.5341 5.89834 11.5341C8.12757 11.5341 10.0173 12.3946 10.0173 12.3946C10.0173 12.3946 8.12757 13.2551 5.89834 13.2551C3.84647 13.2551 2.72168 12.3946 2.72168 12.3946Z" stroke="#22242B" stroke-width="0.474609" stroke-miterlimit="10" stroke-linecap="round" stroke-linejoin="round"/>
<path d="M7.62454 15.8284C7.62454 15.8284 8.50731 15.6585 9.18009 14.6929C9.91096 13.6437 10.0165 12.3948 10.0165 12.3948C10.0165 12.3948 8.88293 12.9247 8.15203 13.9738C7.47929 14.9395 7.62454 15.8284 7.62454 15.8284Z" stroke="#22242B" stroke-width="0.474609" stroke-miterlimit="10" stroke-linecap="round" stroke-linejoin="round"/>
<path d="M5.69799 9.46299C5.78099 9.55413 5.86794 9.64568 5.95949 9.73741C7.77355 11.5551 10.0102 12.3958 10.0102 12.3958C10.0102 12.3958 9.17131 10.1546 7.35722 8.33688C5.68744 6.66376 4.07324 6.44688 4.07324 6.44688C4.07324 6.44688 4.19957 7.39003 5.00271 8.58089" stroke="#22242B" stroke-width="0.474609" stroke-miterlimit="10" stroke-linecap="round" stroke-linejoin="round"/>
<path d="M10.0137 12.3946L10.0158 17.2786" stroke="#22242B" stroke-width="0.474609" stroke-miterlimit="10" stroke-linecap="round" stroke-linejoin="round"/>
</g>
</svg>
